<svg width="37" height="50" viewBox="0 0 37 50" fill="none" xmlns="http://www.w3.org/2000/svg">
<path d="M18.5001 0.697266C8.46881 0.697266 0.500061 8.85352 0.500061 18.6973C0.500061 25.4473 2.65631 27.5098 14.6563 46.6348C16.4376 49.4473 20.4688 49.4473 22.2501 46.6348C34.2501 27.5098 36.5001 25.4473 36.5001 18.6973C36.5001 8.75977 28.3438 0.697266 18.5001 0.697266ZM18.5001 44.1973C6.50006 25.0723 5.00006 23.8535 5.00006 18.6973C5.00006 11.291 11.0001 5.19727 18.5001 5.19727C25.9063 5.19727 32.0001 11.291 32.0001 18.6973C32.0001 23.8535 30.5001 24.8848 18.5001 44.1973ZM11.0001 18.6973C11.0001 22.916 14.2813 26.1973 18.5001 26.1973C22.6251 26.1973 26.0001 22.916 26.0001 18.6973C26.0001 14.5723 22.6251 11.1973 18.5001 11.1973C14.2813 11.1973 11.0001 14.5723 11.0001 18.6973Z" fill="#F7654A"/>
</svg>
