<svg width="49" height="37" viewBox="0 0 49 37" fill="none" xmlns="http://www.w3.org/2000/svg">
<path d="M44.0001 0.697266H5.00006C2.46881 0.697266 0.500061 2.75977 0.500061 5.19727V32.1973C0.500061 34.7285 2.46881 36.6973 5.00006 36.6973H44.0001C46.4376 36.6973 48.5001 34.7285 48.5001 32.1973V5.19727C48.5001 2.75977 46.4376 0.697266 44.0001 0.697266ZM44.0001 5.19727V9.04102C41.8438 10.8223 38.4688 13.4473 31.3438 19.0723C29.7501 20.291 26.6563 23.291 24.5001 23.1973C22.2501 23.291 19.1563 20.291 17.5626 19.0723C10.4376 13.4473 7.06256 10.8223 5.00006 9.04102V5.19727H44.0001ZM5.00006 32.1973V14.8535C7.06256 16.541 10.1563 18.9785 14.7501 22.6348C16.8126 24.2285 20.4688 27.791 24.5001 27.6973C28.4376 27.791 32.0001 24.2285 34.1563 22.6348C38.7501 18.9785 41.8438 16.541 44.0001 14.8535V32.1973H5.00006Z" fill="#F7654A"/>
</svg>
