<svg width="443" height="449" viewBox="0 0 443 449" fill="none" xmlns="http://www.w3.org/2000/svg">
<path d="M355.784 185.212C355.784 110.145 295.564 49.1094 221.5 49.1094C147.436 49.1094 87.2156 110.145 87.2156 185.212C87.2156 187.668 87.2156 190.123 87.5617 192.228C91.3687 268.698 152.627 359.551 212.848 397.435C215.616 399.189 218.731 399.891 221.846 399.891C224.961 399.891 227.73 399.189 230.498 397.435C290.719 359.902 351.977 268.698 355.784 192.228C355.784 189.773 355.784 187.668 355.784 185.212Z" fill="#ED9E77"/>
<g opacity="0.2">
<path opacity="0.2" d="M221.5 49.1094C217.693 49.1094 213.54 49.4602 209.733 49.8109C278.259 55.7742 332.25 114.004 332.25 185.212C332.25 187.668 332.25 189.773 331.904 192.228C328.443 267.295 268.915 356.745 209.733 395.33C210.771 396.032 211.809 396.734 212.848 397.435C215.616 399.189 218.731 399.891 221.846 399.891C224.961 399.891 227.73 399.189 230.498 397.435C290.719 359.902 351.977 268.698 355.784 192.228C355.784 189.773 356.13 187.668 356.13 185.212C355.784 110.145 295.564 49.1094 221.5 49.1094Z" fill="#62345B"/>
</g>
<path d="M221.5 404.1C217.693 404.1 213.54 403.048 210.425 400.943C152.281 364.812 86.8695 274.662 83.0625 192.579C83.0625 190.123 82.7164 187.668 82.7164 185.212C82.7164 107.69 145.013 44.9 221.154 44.9C297.295 44.9 359.591 108.041 359.591 185.212C359.591 187.668 359.591 190.123 359.245 192.579C355.438 274.662 290.027 364.812 231.883 401.294C229.46 403.048 225.653 404.1 221.5 404.1C221.846 404.1 221.5 404.1 221.5 404.1ZM221.5 53.3187C149.859 53.3187 91.7148 112.25 91.7148 184.862C91.7148 187.317 91.7148 189.422 92.0609 191.877C95.868 268.698 158.857 358.148 215.27 393.576C217.001 394.629 219.423 395.33 221.846 395.33V399.54V394.98C224.269 394.98 226.345 394.278 228.076 393.226C284.489 357.797 347.478 268.348 351.285 191.527C351.285 189.071 351.631 186.966 351.631 184.511C351.285 112.601 293.141 53.3187 221.5 53.3187Z" fill="#62345B"/>
<path d="M221.5 292.552C279.99 292.552 327.405 244.494 327.405 185.212C327.405 125.931 279.99 77.8734 221.5 77.8734C163.01 77.8734 115.595 125.931 115.595 185.212C115.595 244.494 163.01 292.552 221.5 292.552Z" fill="white"/>
<path d="M225.307 117.862L241.573 157.501C242.266 158.904 243.304 159.956 245.034 159.956L287.258 163.464C290.719 163.815 292.103 168.024 289.68 170.48L257.494 198.542C256.455 199.595 255.763 200.998 256.109 202.401L265.8 244.144C266.492 247.652 263.031 250.458 259.916 248.353L223.577 225.903C222.192 225.202 220.808 225.202 219.423 225.903L183.084 248.353C179.969 250.107 176.508 247.301 177.2 244.144L186.891 202.401C187.237 200.998 186.891 199.244 185.506 198.542L153.32 170.48C150.551 168.024 151.935 163.815 155.742 163.464L197.966 159.956C199.35 159.956 200.734 158.904 201.427 157.501L217.693 117.862C219.077 114.705 223.923 114.705 225.307 117.862Z" fill="#F1EE8D"/>
<path d="M261.993 253.615C260.609 253.615 258.878 253.264 257.84 252.212L221.5 230.112L185.506 252.562C182.045 254.667 177.2 253.966 174.777 250.458C173.047 248.353 172.701 245.898 173.393 243.442L183.084 201.699L150.897 173.987C148.474 171.883 147.436 168.375 148.474 164.867C149.512 161.71 152.281 159.255 155.742 159.255L197.966 155.747L214.232 116.109C215.616 112.952 218.385 110.847 221.846 110.847C225.307 110.847 228.076 112.952 229.46 116.109L245.727 155.747L287.95 159.255C291.411 159.605 294.18 161.71 295.218 164.867C296.256 168.024 295.218 171.532 292.795 173.987L260.609 201.699L269.953 243.442C270.645 245.898 269.953 248.704 268.569 250.458C266.838 252.562 264.416 253.615 261.993 253.615ZM221.5 221.343C222.884 221.343 224.615 221.694 225.653 222.746L260.955 244.845L251.61 203.453C250.918 200.296 251.956 197.139 254.379 195.034L285.873 167.673L244.342 164.166C241.227 163.815 238.459 162.061 237.42 158.904L221.5 120.669L205.58 159.605C204.541 162.412 201.773 164.516 198.658 164.867L157.127 168.375L188.621 195.736C191.044 197.841 192.082 200.998 191.39 204.155L181.699 245.196L217.001 223.097C218.385 221.694 220.116 221.343 221.5 221.343Z" fill="#62345B"/>
<path d="M221.5 297.112C160.587 297.112 111.096 246.95 111.096 185.212C111.096 123.475 160.587 73.3133 221.5 73.3133C282.412 73.3133 331.904 123.475 331.904 185.212C331.904 246.95 282.412 297.112 221.5 297.112ZM221.5 82.0828C165.433 82.0828 119.748 128.386 119.748 185.212C119.748 242.039 165.433 288.342 221.5 288.342C277.567 288.342 323.252 242.039 323.252 185.212C323.252 128.386 277.567 82.0828 221.5 82.0828Z" fill="#62345B"/>
</svg>
