<svg width="443" height="449" viewBox="0 0 443 449" fill="none" xmlns="http://www.w3.org/2000/svg">
<path d="M355.784 185.212C355.784 110.145 295.564 49.1094 221.5 49.1094C147.436 49.1094 87.2156 110.145 87.2156 185.212C87.2156 187.668 87.2156 190.123 87.5617 192.228C91.3688 268.698 152.627 359.551 212.848 397.435C215.616 399.189 218.731 399.891 221.846 399.891C224.961 399.891 227.73 399.189 230.498 397.435C290.719 359.902 351.977 268.698 355.784 192.228C355.784 189.773 355.784 187.668 355.784 185.212Z" fill="#EE7F8F"/>
<g opacity="0.2">
<path opacity="0.2" d="M221.5 49.1094C217.693 49.1094 213.54 49.4602 209.733 49.8109C278.259 55.7742 332.25 114.004 332.25 185.212C332.25 187.668 332.25 189.773 331.904 192.228C328.443 267.295 268.915 356.745 209.733 395.33C210.771 396.032 211.809 396.734 212.848 397.435C215.616 399.189 218.731 399.891 221.846 399.891C224.961 399.891 227.73 399.189 230.498 397.435C290.719 359.902 351.977 268.698 355.784 192.228C355.784 189.773 356.13 187.668 356.13 185.212C355.784 110.145 295.564 49.1094 221.5 49.1094Z" fill="#62345B"/>
</g>
<path d="M221.5 404.1C217.693 404.1 213.54 403.048 210.425 400.943C152.281 364.812 86.8696 274.662 83.0625 192.579C83.0625 190.123 82.7164 187.668 82.7164 185.212C82.7164 107.69 145.013 44.9 221.154 44.9C297.295 44.9 359.591 108.041 359.591 185.212C359.591 187.668 359.591 190.123 359.245 192.579C355.438 274.662 290.027 364.812 231.883 401.294C229.46 403.048 225.653 404.1 221.5 404.1C221.846 404.1 221.5 404.1 221.5 404.1ZM221.5 53.3187C149.859 53.3187 91.7149 112.25 91.7149 184.862C91.7149 187.317 91.7149 189.422 91.7149 191.877C95.5219 268.698 158.511 358.148 214.924 393.577C216.655 394.629 219.077 395.33 221.5 395.33V399.54V394.98C223.923 394.98 225.999 394.278 227.73 393.226C284.143 357.797 347.132 268.348 350.939 191.527C350.939 189.071 351.285 186.966 351.285 184.511C351.285 112.601 293.141 53.3187 221.5 53.3187Z" fill="#62345B"/>
<path d="M221.5 292.552C279.99 292.552 327.405 244.494 327.405 185.212C327.405 125.931 279.99 77.8734 221.5 77.8734C163.01 77.8734 115.595 125.931 115.595 185.212C115.595 244.494 163.01 292.552 221.5 292.552Z" fill="white"/>
<path d="M221.5 297.112C160.588 297.112 111.096 246.95 111.096 185.212C111.096 123.475 160.588 73.3133 221.5 73.3133C282.413 73.3133 331.904 123.475 331.904 185.212C331.904 246.95 282.413 297.112 221.5 297.112ZM221.5 82.0828C165.433 82.0828 119.748 128.386 119.748 185.212C119.748 242.039 165.433 288.342 221.5 288.342C277.567 288.342 323.252 242.039 323.252 185.212C323.252 128.386 277.567 82.0828 221.5 82.0828Z" fill="#62345B"/>
<path d="M177.2 179.951L172.355 178.898C165.087 177.495 163.702 175.391 163.702 171.532C163.702 167.323 167.509 164.516 173.393 164.516C178.584 164.516 182.045 166.621 183.084 171.181C183.776 173.286 185.852 174.338 188.275 173.637C190.352 173.286 191.736 171.532 191.736 169.778C191.736 169.427 191.736 168.726 191.39 168.375C189.659 163.113 185.16 156.448 173.047 156.448C159.549 156.448 154.704 164.516 154.704 171.181C154.704 179.951 159.203 184.511 169.586 186.616L174.777 187.668C182.738 189.422 184.468 191.527 184.468 195.736C184.468 200.647 180.315 203.804 173.739 203.804C165.087 203.804 163.356 199.595 162.318 195.385C161.972 193.631 160.241 192.579 158.165 192.579C157.819 192.579 157.473 192.579 156.78 192.579C154.704 192.93 153.32 194.684 153.32 196.437C153.32 196.788 153.32 197.139 153.666 197.49C155.742 204.505 159.549 211.521 174.085 211.521C185.852 211.521 193.12 205.207 193.12 195.385C193.813 185.914 187.237 182.055 177.2 179.951Z" fill="#62345B"/>
<path d="M221.5 156.799C206.964 156.799 197.62 167.673 197.62 184.511C197.62 201.348 206.964 212.223 221.5 212.223C236.036 212.223 245.034 201.348 245.034 184.511C245.034 167.673 236.036 156.799 221.5 156.799ZM221.5 204.155C212.502 204.155 206.618 196.438 206.618 184.511C206.618 172.234 212.502 164.867 221.5 164.867C230.498 164.867 236.382 172.584 236.382 184.16C236.382 196.788 230.845 204.155 221.5 204.155Z" fill="#62345B"/>
<path d="M272.376 179.951L267.531 178.898C260.263 177.495 258.878 175.391 258.878 171.532C258.878 167.323 262.685 164.516 268.569 164.516C273.76 164.516 277.221 166.621 278.259 171.181C278.952 173.286 281.028 174.338 283.451 173.637C285.527 173.286 286.912 171.532 286.912 169.778C286.912 169.427 286.912 168.726 286.566 168.375C284.835 163.113 280.336 156.448 268.223 156.448C254.725 156.448 249.88 164.516 249.88 171.181C249.88 179.951 254.379 184.511 264.762 186.616L269.953 187.668C277.913 189.422 279.644 191.527 279.644 195.736C279.644 200.647 275.491 203.804 268.915 203.804C260.263 203.804 258.532 199.595 257.494 195.385C257.148 193.631 255.417 192.579 253.341 192.579C252.995 192.579 252.648 192.579 251.956 192.579C249.88 192.93 248.495 194.684 248.495 196.437C248.495 196.788 248.495 197.139 248.841 197.49C250.918 204.505 254.725 211.521 269.261 211.521C281.028 211.521 288.296 205.207 288.296 195.385C288.988 185.914 282.413 182.055 272.376 179.951Z" fill="#62345B"/>
</svg>
