<svg width="49" height="49" viewBox="0 0 49 49" fill="none" xmlns="http://www.w3.org/2000/svg">
<path d="M45.125 2.88599L36.3125 0.917236C34.25 0.448486 32.1875 1.47974 31.4375 3.35474L27.3125 12.9172C26.5625 14.6047 27.0313 16.6672 28.5313 17.886L32.2813 20.9797C29.6563 25.8547 25.5313 29.886 20.6563 32.6047L17.5625 28.8547C16.3438 27.3547 14.2813 26.886 12.5938 27.636L3.03128 31.6672C1.15628 32.511 0.125031 34.5735 0.593781 36.636L2.56253 45.4485C3.03128 47.4172 4.81253 48.7297 6.78128 48.7297C29.75 48.7297 48.5 30.1672 48.5 7.10474C48.5 5.13599 47.0938 3.35474 45.125 2.88599ZM6.96878 44.2297L5.00003 35.7922L14.1875 31.8547L19.4375 38.2297C28.7188 33.8235 33.5 29.0422 37.9063 19.761L31.5313 14.511L35.4688 5.32349L44 7.29224C43.9063 27.636 27.3125 44.136 6.96878 44.2297Z" fill="#F7654A"/>
</svg>
